<?xml version="1.0" encoding="utf-8"?>
<!-- Generator: Adobe Illustrator 22.1.0, SVG Export Plug-In . SVG Version: 6.00 Build 0)  -->
<svg version="1.1" id="Layer_1" xmlns="http://www.w3.org/2000/svg" xmlns:xlink="http://www.w3.org/1999/xlink" x="0px" y="0px"
	 viewBox="0 0 84 150" style="enable-background:new 0 0 84 150;" xml:space="preserve">
<style type="text/css">
	.st0{fill:#FFEE2D;}
</style>
<g>
	<path class="st0" d="M38.9,142.5h6.1c3.8,0,6.8-3.1,6.8-6.9v-1.2c0-3.8-3-6.9-6.8-6.9h-6.1c-3.8,0-6.8,3.1-6.8,6.9v1.2
		C32.1,139.4,35.2,142.5,38.9,142.5z M37.1,134.4C37.1,134.4,37.1,134.4,37.1,134.4c0-1,0.8-1.9,1.9-1.9h6.1c0,0,0,0,0,0
		c1,0,1.9,0.9,1.9,1.9v1.2c0,0,0,0,0,0c0,1-0.8,1.9-1.9,1.9h-6.1c0,0,0,0,0,0c-1,0-1.9-0.9-1.9-1.9V134.4z"/>
	<path class="st0" d="M15.1,57.1c-0.1,1.2-0.6,2.6,0,3.4c0,0,0,0,0,0c1,1,2.5,0.9,3.5,0L43,36.4c0,0,0,0,0,0c0.9-0.9,0.9-2.5,0-3.4
		c0,0,0,0,0,0c-1-1-2.5-0.9-3.5,0L15.1,57.1L15.1,57.1z"/>
	<path class="st0" d="M54.4,7.5H29.6h0c-1.4,0-2.5,1.1-2.5,2.5c0,0,0,0,0,0c0,1.4,1.1,2.5,2.5,2.5h24.7c0,0,0,0,0,0
		c1.4,0,2.5-1.1,2.5-2.5C56.8,8.6,55.7,7.5,54.4,7.5z"/>
	<path class="st0" d="M75.1,0H8.9C4,0,0,4.1,0,9V141c0,5,4,9,8.9,9.1h66.1c5,0,9-4.1,8.9-9.1V9C84,4.1,80,0,75.1,0z M79.1,141
		c0,2.2-1.8,4-4,4H8.9c-2.2,0-4-1.8-4-4v-16h74.1V141z M79.1,120H4.9V20h74.1V120z M79.1,15H4.9V9c0-2.2,1.8-4,4-4h66.1
		c2.2,0,4,1.8,4,4V15z"/>
	<path class="st0" d="M71.6,7.5h-2.5c-1.4,0-2.5,1.1-2.5,2.5c0,0,0,0,0,0c0,1.4,1.1,2.5,2.5,2.5h2.5c0,0,0,0,0,0
		c1.4,0,2.5-1.1,2.5-2.5C74.1,8.6,73,7.5,71.6,7.5z"/>
	<path class="st0" d="M18.5,46l9.8-9.7c0,0,0,0,0,0c0.9-0.9,0.9-2.5,0-3.4c0,0,0,0,0,0c-1-1-2.5-0.9-3.5,0l-9.8,9.7l0,0
		c-0.3,1.1-0.6,2.6,0,3.4C16,46.9,17.5,46.9,18.5,46z"/>
</g>
</svg>
