<?xml version="1.0" encoding="utf-8"?>
<!-- Generator: Adobe Illustrator 22.1.0, SVG Export Plug-In . SVG Version: 6.00 Build 0)  -->
<svg version="1.1" id="Layer_1" xmlns="http://www.w3.org/2000/svg" xmlns:xlink="http://www.w3.org/1999/xlink" x="0px" y="0px"
	 viewBox="0 0 63 150" style="enable-background:new 0 0 63 150;" xml:space="preserve">
<style type="text/css">
	.st0{fill:#FFEE2D;}
</style>
<g>
	<path class="st0" d="M18.4,95h-5.2c-0.1,0-0.2,0-0.2,0c-1.4,0.1-2.5,1.2-2.4,2.6c0.1,1.4,1.2,2.5,2.6,2.4h5.2c0.1,0,0.2,0,0.2,0
		c1.4-0.1,2.5-1.2,2.4-2.6C20.9,96,19.8,94.9,18.4,95z"/>
	<path class="st0" d="M26.2,82.5c0,0,0-0.1,0-0.1c0,0,0,0,0,0c-0.1-1.3-1.1-2.3-2.3-2.4c-0.1,0-0.1,0-0.2,0c-0.1,0-0.1,0-0.2,0H13.3
		c0,0,0,0-0.1,0c-0.1,0-0.1,0-0.2,0c-0.1,0-0.1,0-0.2,0c0,0-0.1,0-0.1,0c0,0-0.1,0-0.1,0c-1.2,0.2-2,1.1-2.1,2.3c0,0.1,0,0.1,0,0.2
		v5c0,1.4,1.2,2.5,2.6,2.5v0c1.4,0,2.6-1.1,2.6-2.5V85H21v2.5c0,1.4,1.2,2.5,2.6,2.5v0c1.4,0,2.6-1.1,2.6-2.5V82.5z"/>
	<path class="st0" d="M18.4,105h-5.2c-0.1,0-0.2,0-0.2,0c-1.4,0.1-2.5,1.2-2.4,2.6c0.1,1.4,1.2,2.5,2.6,2.4h5.2v0c0.1,0,0.2,0,0.2,0
		c1.4-0.1,2.5-1.2,2.4-2.6C20.9,106,19.8,104.9,18.4,105z"/>
	<path class="st0" d="M21,35h21v0c0.1,0,0.2,0,0.2,0c1.4-0.1,2.4-1.2,2.4-2.6C44.5,31,43.4,29.9,42,30H21c-0.1,0-0.2,0-0.2,0
		c-1.4,0.1-2.4,1.2-2.4,2.6C18.5,34,19.6,35,21,35z"/>
	<path class="st0" d="M13.1,75h36.8c1.4,0,2.6-1.1,2.6-2.5v-30c0-1.4-1.2-2.5-2.6-2.5H13.1c-1.4,0-2.6,1.1-2.6,2.5v30
		C10.5,73.9,11.7,75,13.1,75z M15.8,45h31.5v25H15.8V45z"/>
	<path class="st0" d="M18.6,120c1.4-0.1,2.4-1.2,2.4-2.6c-0.1-1.4-1.2-2.4-2.6-2.4h-5.2c-0.1,0-0.2,0-0.2,0
		c-1.4,0.1-2.4,1.2-2.4,2.6c0.1,1.4,1.2,2.4,2.6,2.4h5.2v0C18.5,120,18.5,120,18.6,120z"/>
	<path class="st0" d="M18.4,125h-5.2c-0.1,0-0.2,0-0.2,0c-1.4,0.1-2.5,1.2-2.4,2.6c0.1,1.4,1.2,2.5,2.6,2.4h5.2v0c0.1,0,0.2,0,0.2,0
		c1.4-0.1,2.5-1.2,2.4-2.6C20.9,126,19.8,124.9,18.4,125z"/>
	<path class="st0" d="M34.1,135h-5.2c-0.1,0-0.2,0-0.2,0c-1.4,0.1-2.5,1.2-2.4,2.6c0.1,1.4,1.2,2.5,2.6,2.4h5.2v0c0.1,0,0.2,0,0.2,0
		c1.4-0.1,2.5-1.2,2.4-2.6C36.7,136,35.5,134.9,34.1,135z"/>
	<path class="st0" d="M50.1,120c1.4-0.1,2.4-1.2,2.4-2.6c-0.1-1.4-1.2-2.4-2.6-2.4h-5.2c-0.1,0-0.2,0-0.2,0
		c-1.4,0.1-2.4,1.2-2.4,2.6c0.1,1.4,1.2,2.4,2.6,2.4h5.2v0C50,120,50,120,50.1,120z"/>
	<path class="st0" d="M49.9,125h-5.2c-0.1,0-0.2,0-0.2,0c-1.4,0.1-2.5,1.2-2.4,2.6c0.1,1.4,1.2,2.5,2.6,2.4h5.2v0c0.1,0,0.2,0,0.2,0
		c1.4-0.1,2.5-1.2,2.4-2.6C52.4,126,51.3,124.9,49.9,125z"/>
	<path class="st0" d="M49.9,105h-5.2c-0.1,0-0.2,0-0.2,0c-1.4,0.1-2.5,1.2-2.4,2.6c0.1,1.4,1.2,2.5,2.6,2.4h5.2v0c0.1,0,0.2,0,0.2,0
		c1.4-0.1,2.5-1.2,2.4-2.6C52.4,106,51.3,104.9,49.9,105z"/>
	<path class="st0" d="M49.9,95h-5.2c-0.1,0-0.2,0-0.2,0c-1.4,0.1-2.5,1.2-2.4,2.6c0.1,1.4,1.2,2.5,2.6,2.4h5.2c0.1,0,0.2,0,0.2,0
		c1.4-0.1,2.5-1.2,2.4-2.6C52.4,96,51.3,94.9,49.9,95z"/>
	<path class="st0" d="M49.9,20H26.2V7.5c-0.2-4.1-3.4-7.3-7.5-7.5c-4.3-0.2-8,3.1-8.3,7.5v12.7C4.7,21.3,0.2,26.3,0,32.5v105
		c0.2,7.1,6.1,12.7,13.1,12.5h36.7c7.1,0.1,12.9-5.4,13.1-12.5v-105C62.8,25.4,56.9,19.8,49.9,20z M15.8,7.5C15.8,6.1,16.9,5,18.2,5
		c1.4-0.1,2.7,1,2.8,2.5V20h-5.2V7.5z M57.8,137.5c-0.1,4.2-3.6,7.6-7.9,7.5H13.1c-4.2,0.1-7.8-3.3-7.9-7.5v-105
		c0.1-4.2,3.6-7.6,7.9-7.5h36.7c4.2-0.1,7.8,3.3,7.9,7.5V137.5z"/>
	<path class="st0" d="M34.1,105h-5.2c-0.1,0-0.2,0-0.2,0c-1.4,0.1-2.5,1.2-2.4,2.6c0.1,1.4,1.2,2.5,2.6,2.4h5.2v0c0.1,0,0.2,0,0.2,0
		c1.4-0.1,2.5-1.2,2.4-2.6C36.7,106,35.5,104.9,34.1,105z"/>
	<path class="st0" d="M34.1,125h-5.2c-0.1,0-0.2,0-0.2,0c-1.4,0.1-2.5,1.2-2.4,2.6c0.1,1.4,1.2,2.5,2.6,2.4h5.2v0c0.1,0,0.2,0,0.2,0
		c1.4-0.1,2.5-1.2,2.4-2.6C36.7,126,35.5,124.9,34.1,125z"/>
	<path class="st0" d="M42,85h5.2v2.5c0,1.4,1.2,2.5,2.6,2.5v0c1.4,0,2.6-1.1,2.6-2.5v-5c0-0.2,0-0.4-0.1-0.5
		c-0.2-1.1-1.1-1.9-2.2-1.9c-0.1,0-0.1,0-0.2,0c-0.1,0-0.1,0-0.2,0H39.6c0,0,0,0-0.1,0c-0.1,0-0.1,0-0.2,0c-0.1,0-0.1,0-0.2,0
		c0,0-0.1,0-0.1,0c0,0-0.1,0-0.1,0c-1.2,0.2-2,1.1-2.1,2.3c0,0.1,0,0.1,0,0.2v5c0,1.4,1.2,2.5,2.6,2.5v0c1.4,0,2.6-1.1,2.6-2.5V85z"
		/>
	<path class="st0" d="M34.4,120c1.4-0.1,2.4-1.2,2.4-2.6c-0.1-1.4-1.2-2.4-2.6-2.4h-5.2c-0.1,0-0.2,0-0.2,0
		c-1.4,0.1-2.4,1.2-2.4,2.6c0.1,1.4,1.2,2.4,2.6,2.4h5.2v0C34.2,120,34.3,120,34.4,120z"/>
	<path class="st0" d="M34.1,95h-5.2c-0.1,0-0.2,0-0.2,0c-1.4,0.1-2.5,1.2-2.4,2.6c0.1,1.4,1.2,2.5,2.6,2.4h5.2c0.1,0,0.2,0,0.2,0
		c1.4-0.1,2.5-1.2,2.4-2.6C36.7,96,35.5,94.9,34.1,95z"/>
</g>
</svg>
